<svg xmlns="http://www.w3.org/2000/svg" xmlns:xlink="http://www.w3.org/1999/xlink" width="1000" zoomAndPan="magnify" viewBox="0 0 750 449.999984" height="600" preserveAspectRatio="xMidYMid meet" version="1.0"><defs><filter x="0%" y="0%" width="100%" height="100%" id="e85401b84c"><feColorMatrix values="0 0 0 0 1 0 0 0 0 1 0 0 0 0 1 0 0 0 1 0" color-interpolation-filters="sRGB"/></filter><g/><mask id="776edbcba0"><g filter="url(#e85401b84c)"><rect x="-75" width="900" fill="#000000" y="-44.999998" height="539.99998" fill-opacity="0.18"/></g></mask><clipPath id="135d1f84d7"><path d="M 0 0 L 750 0 L 750 450 L 0 450 Z M 0 0 " clip-rule="nonzero"/></clipPath><clipPath id="27680d0974"><rect x="0" width="750" y="0" height="450"/></clipPath><mask id="f26fbc538d"><g filter="url(#e85401b84c)"><rect x="-75" width="900" fill="#000000" y="-44.999998" height="539.99998" fill-opacity="0.18"/></g></mask><clipPath id="f6ccca27c0"><path d="M 0 0 L 750 0 L 750 450 L 0 450 Z M 0 0 " clip-rule="nonzero"/></clipPath><clipPath id="99ad05b941"><rect x="0" width="750" y="0" height="450"/></clipPath></defs><rect x="-75" width="900" fill="#ffffff" y="-44.999998" height="539.99998" fill-opacity="1"/><rect x="-75" width="900" fill="#00ff03" y="-44.999998" height="539.99998" fill-opacity="1"/><g fill="#000000" fill-opacity="1"><g transform="translate(105.070318, 254.208057)"><g><path d="M 18.171875 -28.46875 L 21.921875 -28.46875 C 25.429688 -28.46875 28.054688 -29.160156 29.796875 -30.546875 C 31.535156 -31.929688 32.40625 -33.945312 32.40625 -36.59375 C 32.40625 -39.269531 31.675781 -41.242188 30.21875 -42.515625 C 28.757812 -43.796875 26.472656 -44.4375 23.359375 -44.4375 L 18.171875 -44.4375 Z M 43.921875 -37 C 43.921875 -31.21875 42.109375 -26.789062 38.484375 -23.71875 C 34.867188 -20.65625 29.726562 -19.125 23.0625 -19.125 L 18.171875 -19.125 L 18.171875 0 L 6.765625 0 L 6.765625 -53.78125 L 23.9375 -53.78125 C 30.46875 -53.78125 35.429688 -52.375 38.828125 -49.5625 C 42.222656 -46.75 43.921875 -42.5625 43.921875 -37 Z M 43.921875 -37 "/></g></g></g><g fill="#000000" fill-opacity="1"><g transform="translate(152.371081, 254.208057)"><g><path d="M 6.765625 0 L 6.765625 -53.78125 L 18.171875 -53.78125 L 18.171875 -9.421875 L 39.984375 -9.421875 L 39.984375 0 Z M 6.765625 0 "/></g></g></g><g fill="#000000" fill-opacity="1"><g transform="translate(194.927054, 254.208057)"><g><path d="M 39.6875 0 L 35.78125 -12.796875 L 16.1875 -12.796875 L 12.28125 0 L 0 0 L 18.984375 -54 L 32.921875 -54 L 51.96875 0 Z M 33.0625 -22.359375 C 29.457031 -33.960938 27.425781 -40.523438 26.96875 -42.046875 C 26.519531 -43.566406 26.195312 -44.765625 26 -45.640625 C 25.195312 -42.503906 22.878906 -34.742188 19.046875 -22.359375 Z M 33.0625 -22.359375 "/></g></g></g><g fill="#000000" fill-opacity="1"><g transform="translate(246.899042, 254.208057)"><g><path d="M 29.609375 -45.0625 C 25.316406 -45.0625 21.992188 -43.445312 19.640625 -40.21875 C 17.285156 -37 16.109375 -32.503906 16.109375 -26.734375 C 16.109375 -14.742188 20.609375 -8.75 29.609375 -8.75 C 33.378906 -8.75 37.953125 -9.695312 43.328125 -11.59375 L 43.328125 -2.015625 C 38.910156 -0.179688 33.984375 0.734375 28.546875 0.734375 C 20.722656 0.734375 14.738281 -1.632812 10.59375 -6.375 C 6.445312 -11.125 4.375 -17.9375 4.375 -26.8125 C 4.375 -32.40625 5.390625 -37.300781 7.421875 -41.5 C 9.460938 -45.707031 12.390625 -48.929688 16.203125 -51.171875 C 20.015625 -53.421875 24.484375 -54.546875 29.609375 -54.546875 C 34.828125 -54.546875 40.070312 -53.285156 45.34375 -50.765625 L 41.671875 -41.484375 C 39.660156 -42.441406 37.632812 -43.273438 35.59375 -43.984375 C 33.5625 -44.703125 31.566406 -45.0625 29.609375 -45.0625 Z M 29.609375 -45.0625 "/></g></g></g><g fill="#000000" fill-opacity="1"><g transform="translate(294.898649, 254.208057)"><g><path d="M 37.734375 0 L 6.765625 0 L 6.765625 -53.78125 L 37.734375 -53.78125 L 37.734375 -44.4375 L 18.171875 -44.4375 L 18.171875 -32.625 L 36.375 -32.625 L 36.375 -23.28125 L 18.171875 -23.28125 L 18.171875 -9.421875 L 37.734375 -9.421875 Z M 37.734375 0 "/></g></g></g><g fill="#000000" fill-opacity="1"><g transform="translate(337.08681, 254.208057)"><g><path d="M 50.828125 0 L 39.46875 0 L 39.46875 -23.203125 L 18.171875 -23.203125 L 18.171875 0 L 6.765625 0 L 6.765625 -53.78125 L 18.171875 -53.78125 L 18.171875 -32.703125 L 39.46875 -32.703125 L 39.46875 -53.78125 L 50.828125 -53.78125 Z M 50.828125 0 "/></g></g></g><g fill="#000000" fill-opacity="1"><g transform="translate(394.723119, 254.208057)"><g><path d="M 55.578125 -26.953125 C 55.578125 -18.054688 53.367188 -11.21875 48.953125 -6.4375 C 44.535156 -1.65625 38.210938 0.734375 29.984375 0.734375 C 21.742188 0.734375 15.414062 -1.65625 11 -6.4375 C 6.582031 -11.21875 4.375 -18.082031 4.375 -27.03125 C 4.375 -35.976562 6.585938 -42.8125 11.015625 -47.53125 C 15.441406 -52.257812 21.785156 -54.625 30.046875 -54.625 C 38.316406 -54.625 44.640625 -52.242188 49.015625 -47.484375 C 53.390625 -42.722656 55.578125 -35.878906 55.578125 -26.953125 Z M 16.328125 -26.953125 C 16.328125 -20.953125 17.46875 -16.429688 19.75 -13.390625 C 22.03125 -10.347656 25.441406 -8.828125 29.984375 -8.828125 C 39.078125 -8.828125 43.625 -14.867188 43.625 -26.953125 C 43.625 -39.066406 39.097656 -45.125 30.046875 -45.125 C 25.515625 -45.125 22.09375 -43.597656 19.78125 -40.546875 C 17.476562 -37.492188 16.328125 -32.960938 16.328125 -26.953125 Z M 16.328125 -26.953125 "/></g></g></g><g fill="#000000" fill-opacity="1"><g transform="translate(454.676651, 254.208057)"><g><path d="M 6.765625 0 L 6.765625 -53.78125 L 18.171875 -53.78125 L 18.171875 -9.421875 L 39.984375 -9.421875 L 39.984375 0 Z M 6.765625 0 "/></g></g></g><g fill="#000000" fill-opacity="1"><g transform="translate(497.232625, 254.208057)"><g><path d="M 51.390625 -27.40625 C 51.390625 -18.550781 48.867188 -11.769531 43.828125 -7.0625 C 38.785156 -2.351562 31.507812 0 22 0 L 6.765625 0 L 6.765625 -53.78125 L 23.65625 -53.78125 C 32.425781 -53.78125 39.238281 -51.460938 44.09375 -46.828125 C 48.957031 -42.191406 51.390625 -35.71875 51.390625 -27.40625 Z M 39.546875 -27.109375 C 39.546875 -38.660156 34.441406 -44.4375 24.234375 -44.4375 L 18.171875 -44.4375 L 18.171875 -9.421875 L 23.0625 -9.421875 C 34.050781 -9.421875 39.546875 -15.316406 39.546875 -27.109375 Z M 39.546875 -27.109375 "/></g></g></g><g fill="#000000" fill-opacity="1"><g transform="translate(552.993088, 254.208057)"><g><path d="M 37.734375 0 L 6.765625 0 L 6.765625 -53.78125 L 37.734375 -53.78125 L 37.734375 -44.4375 L 18.171875 -44.4375 L 18.171875 -32.625 L 36.375 -32.625 L 36.375 -23.28125 L 18.171875 -23.28125 L 18.171875 -9.421875 L 37.734375 -9.421875 Z M 37.734375 0 "/></g></g></g><g fill="#000000" fill-opacity="1"><g transform="translate(595.181272, 254.208057)"><g><path d="M 18.171875 -29.90625 L 21.84375 -29.90625 C 25.445312 -29.90625 28.109375 -30.503906 29.828125 -31.703125 C 31.546875 -32.898438 32.40625 -34.789062 32.40625 -37.375 C 32.40625 -39.914062 31.523438 -41.726562 29.765625 -42.8125 C 28.015625 -43.894531 25.300781 -44.4375 21.625 -44.4375 L 18.171875 -44.4375 Z M 18.171875 -20.640625 L 18.171875 0 L 6.765625 0 L 6.765625 -53.78125 L 22.4375 -53.78125 C 29.738281 -53.78125 35.144531 -52.445312 38.65625 -49.78125 C 42.164062 -47.125 43.921875 -43.085938 43.921875 -37.671875 C 43.921875 -34.503906 43.046875 -31.6875 41.296875 -29.21875 C 39.554688 -26.757812 37.09375 -24.832031 33.90625 -23.4375 C 42 -11.34375 47.273438 -3.53125 49.734375 0 L 37.078125 0 L 24.234375 -20.640625 Z M 18.171875 -20.640625 "/></g></g></g><g mask="url(#776edbcba0)"><g transform="matrix(1, 0, 0, 1, 0, 0)"><g clip-path="url(#27680d0974)"><g clip-path="url(#135d1f84d7)"><path stroke-linecap="butt" transform="matrix(0.64328, -0.385604, 0.385604, 0.64328, -0.771206, 448.713373)" fill="none" stroke-linejoin="miter" d="M -0.0000469573 2.000075 L 1164.24688 2.000928 " stroke="#000000" stroke-width="4" stroke-opacity="1" stroke-miterlimit="4"/></g></g></g></g><g mask="url(#f26fbc538d)"><g transform="matrix(1, 0, 0, 1, 0, 0)"><g clip-path="url(#99ad05b941)"><g clip-path="url(#f6ccca27c0)"><path stroke-linecap="butt" transform="matrix(-0.64328, -0.385604, 0.385604, -0.64328, 748.167963, 451.286461)" fill="none" stroke-linejoin="miter" d="M 0.00184244 1.99874 L 1164.24877 1.997887 " stroke="#000000" stroke-width="4" stroke-opacity="1" stroke-miterlimit="4"/></g></g></g></g></svg>